# xmcd
#
# Track frame offsets:
#	183
#	20575
#	45960
#	66188
#
# Disc length: 1097 seconds
#
# Revision: 0
# Processed by: cddbd v1.5.1PL0 Copyright (c) Steve Scherf et al.
# Submitted via: audiograbber 1.83.01
#
DISCID=2a044704
DTITLE=Whistle - Bad habit
DYEAR=1990
DGENRE=R&B
TTITLE0=Bad habit (Radio version)
TTITLE1=Bad habit (Magic)
TTITLE2=Bad habit (Dub)
TTITLE3=Bad habit (Rap dub)
EXTD=
EXTT0=
EXTT1=
EXTT2=
EXTT3=
PLAYORDER=
